<?xml version="1.0" encoding="UTF-8" standalone="no"?>
<svg
   xmlns:dc="http://purl.org/dc/elements/1.1/"
   xmlns:cc="http://creativecommons.org/ns#"
   xmlns:rdf="http://www.w3.org/1999/02/22-rdf-syntax-ns#"
   xmlns:svg="http://www.w3.org/2000/svg"
   xmlns="http://www.w3.org/2000/svg"
   xmlns:sodipodi="http://sodipodi.sourceforge.net/DTD/sodipodi-0.dtd"
   xmlns:inkscape="http://www.inkscape.org/namespaces/inkscape"
   version="1.1"
   id="svg2"
   viewBox="0 0 34 65.999996"
   height="66"
   width="34"
   inkscape:version="0.48.4 r9939"
   sodipodi:docname="new-ribbon.svg">
  <sodipodi:namedview
     pagecolor="#ffffff"
     bordercolor="#666666"
     borderopacity="1"
     objecttolerance="10"
     gridtolerance="10"
     guidetolerance="10"
     inkscape:pageopacity="0"
     inkscape:pageshadow="2"
     inkscape:window-width="1375"
     inkscape:window-height="876"
     id="namedview13"
     showgrid="false"
     inkscape:zoom="3.5757576"
     inkscape:cx="-94.564883"
     inkscape:cy="33"
     inkscape:window-x="65"
     inkscape:window-y="24"
     inkscape:window-maximized="1"
     inkscape:current-layer="svg2" />
  <defs
     id="defs4">
    <filter
       height="1.0360001"
       y="-0.018000061"
       width="1.0719995"
       x="-0.03599976"
       id="filter4329"
       style="color-interpolation-filters:sRGB">
      <feGaussianBlur
         id="feGaussianBlur4331"
         stdDeviation="0.47999643" />
    </filter>
  </defs>
  <metadata
     id="metadata7">
    <rdf:RDF>
      <cc:Work
         rdf:about="">
        <dc:format>image/svg+xml</dc:format>
        <dc:type
           rdf:resource="http://purl.org/dc/dcmitype/StillImage" />
        <dc:title />
        <dc:creator>
          <cc:Agent>
            <dc:title>Gabriel A. Zorrilla - gabriel at zorrilla dot me</dc:title>
          </cc:Agent>
        </dc:creator>
        <dc:date>2015.03.24</dc:date>
        <cc:license
           rdf:resource="http://creativecommons.org/licenses/by/3.0/" />
      </cc:Work>
      <cc:License
         rdf:about="http://creativecommons.org/licenses/by/3.0/">
        <cc:permits
           rdf:resource="http://creativecommons.org/ns#Reproduction" />
        <cc:permits
           rdf:resource="http://creativecommons.org/ns#Distribution" />
        <cc:requires
           rdf:resource="http://creativecommons.org/ns#Notice" />
        <cc:requires
           rdf:resource="http://creativecommons.org/ns#Attribution" />
        <cc:permits
           rdf:resource="http://creativecommons.org/ns#DerivativeWorks" />
      </cc:License>
    </rdf:RDF>
  </metadata>
  <g
     transform="translate(-73.353137,-127.27102)"
     id="layer1">
    <g
       transform="matrix(0.99115308,0,0,0.9954275,0.65028057,0.87848718)"
       id="g4333">
      <path
         style="color:#000000;display:inline;overflow:visible;visibility:visible;opacity:1;fill:#000000;fill-opacity:1;fill-rule:evenodd;stroke:none;stroke-width:0.1;stroke-linecap:round;stroke-linejoin:round;stroke-miterlimit:4;stroke-dasharray:none;stroke-dashoffset:0;stroke-opacity:1;marker:none;filter:url(#filter4329);enable-background:accumulate"
         d="m 74.503785,128.12498 31.999975,0 0,63.99931 -15.99999,-10.35521 -15.999985,10.35521 z"
         id="rect4144-4" />
      <g
         id="g4271"
         transform="matrix(1.0000113,0,0,1.0000113,-0.00100773,-0.00215177)">
        <path
           id="rect4144"
           d="m 73.50379,127.125 32,0 0,63.99928 -16,-10.3552 -16,10.3552 z"
           style="color:#000000;display:inline;overflow:visible;visibility:visible;opacity:1;fill:#900000;fill-opacity:1;fill-rule:evenodd;stroke:none;stroke-width:0.1;stroke-linecap:round;stroke-linejoin:round;stroke-miterlimit:4;stroke-dasharray:none;stroke-dashoffset:0;stroke-opacity:1;marker:none;enable-background:accumulate" />
        <path
           id="rect4144-2"
           d="m 76.00379,131.05016 27,0 0,54.15006 -13.5,-8.76158 -13.5,8.76158 z"
           style="color:#000000;display:inline;overflow:visible;visibility:visible;opacity:1;fill:none;fill-opacity:1;fill-rule:evenodd;stroke:#ffd700;stroke-width:1.00674593;stroke-linecap:round;stroke-linejoin:miter;stroke-miterlimit:4;stroke-dasharray:none;stroke-dashoffset:0;stroke-opacity:1;marker:none;enable-background:accumulate" />
      </g>
    </g>
  </g>
  <path
     style="fill:#000080;fill-opacity:1;stroke:#ffffff;stroke-width:0;stroke-miterlimit:4;stroke-opacity:1;stroke-dasharray:none"
     d="m 3.2686441,30.594915 0,-26.0084743 12.7245759,0 12.724577,0 0,26.0084743 c 0,14.304661 -0.05736,26.008475 -0.127469,26.008475 -0.07011,0 -2.912594,-1.828304 -6.316637,-4.062899 l -6.189168,-4.062898 -1.024465,0.626947 c -0.563456,0.344822 -3.389323,2.173125 -6.2797044,4.062898 -2.8903819,1.889773 -5.3129455,3.435952 -5.3834747,3.435952 -0.070529,0 -0.1282348,-11.703814 -0.1282348,-26.008475 z"
     id="path3764"
     inkscape:connector-curvature="0" />
  <path
     style="fill:#0000ff;fill-opacity:1;stroke:#ffffff;stroke-width:0;stroke-miterlimit:4;stroke-opacity:1;stroke-dasharray:none"
     d="m 0.19237288,32.025384 0,-31.63385858 15.80084712,0 15.800848,0 0,31.63385858 0,31.633859 L 31.025,63.153174 c -5.532963,-3.640843 -14.520885,-9.436191 -14.801401,-9.543835 -0.199237,-0.07645 -3.604612,1.969658 -7.5675005,4.546916 -3.9628881,2.577258 -7.4884078,4.869763 -7.83448833,5.094456 l -0.62923729,0.408532 0,-31.633859 z M 9.1695953,54.476045 c 3.6761847,-2.400546 6.8488117,-4.301377 7.0502837,-4.224064 0.201471,0.07731 3.284305,2.041396 6.850741,4.364633 3.566436,2.323233 6.610668,4.224064 6.764957,4.224064 0.185703,0 0.280525,-9.358339 0.280525,-27.686441 l 0,-27.6864404 -14.122882,0 -14.122881,0 0,27.6864404 c 0,19.949996 0.085965,27.686441 0.3076426,27.686441 0.1692034,0 3.3154296,-1.964085 6.9916137,-4.364633 z"
     id="path3766"
     inkscape:connector-curvature="0" />
  <text
     xml:space="preserve"
     style="font-size:44.03616714000000343px;font-style:normal;font-weight:normal;line-height:120%;letter-spacing:0px;word-spacing:0px;fill:#ffa800;fill-opacity:1;stroke:none;font-family:Sans"
     x="-47.545826"
     y="19.606567"
     id="text3768"
     sodipodi:linespacing="120%"
     transform="matrix(0,-0.90834433,1.1009041,0,0,0)"><tspan
       sodipodi:role="line"
       id="tspan3770"
       x="-47.545826"
       y="19.606567"
       style="font-size:12.10994625000000013px;font-weight:bold;line-height:120%;-inkscape-font-specification:Sans Bold;fill:#ffa800;fill-opacity:1">NEW</tspan></text>
  <path
     style="fill:#000080;fill-opacity:0;stroke:#ffffff;stroke-width:0;stroke-miterlimit:4;stroke-opacity:1;stroke-dasharray:none"
     d="M 3.4740186,40.560275 C 3.3722864,31.926149 3.2889285,20.299894 3.2887788,14.724153 l -2.72e-4,-10.1377123 12.5847462,0 12.584745,0 0,25.8651703 0,25.865171 -1.608051,-1.021783 C 25.96552,54.73302 23.252383,52.972719 20.820754,51.383221 18.389126,49.79372 16.246608,48.49322 16.059603,48.49322 c -0.187005,0 -2.350457,1.297762 -4.807671,2.883915 -2.4572144,1.586153 -5.1708511,3.333383 -6.0303041,3.882733 L 3.6589862,56.258685 3.4740186,40.560275 z m 18.2721154,0.661759 0,-1.118644 -3.006356,-0.0089 -3.006356,-0.0089 3.006356,-1.309522 3.006356,-1.309523 0,-1.344748 0,-1.34475 -4.963983,0.07637 -4.963983,0.07637 -0.08624,1.039416 -0.08624,1.039419 3.106535,0.07923 3.106535,0.0792 -3.020293,1.299495 -3.020293,1.299498 -0.08524,1.287367 -0.08524,1.287369 5.049222,0 5.049221,0 0,-1.118644 z m 0,-11.04661 0,-2.936441 -1.118644,0 -1.118644,0 0,1.817797 0,1.817796 -0.978814,0 -0.978813,0 0,-1.677966 0,-1.677966 -1.118644,0 -1.118644,0 0,1.677966 c 0,1.60339 -0.03107,1.677966 -0.699153,1.677966 -0.674055,0 -0.699153,-0.06525 -0.699153,-1.817796 l 0,-1.817797 -1.118644,0 -1.118644,0 0,2.936441 0,2.93644 5.033899,0 5.033898,0 0,-2.93644 z m -4.586608,-4.932704 4.586608,-0.87762 0,-1.330024 0,-1.330023 -3.425848,-0.640534 -3.425847,-0.640534 3.425847,-0.684759 3.425848,-0.684759 0,-1.308973 0,-1.308974 -4.693263,-0.891141 c -2.581295,-0.490128 -4.846549,-0.891142 -5.033898,-0.891142 -0.208239,0 -0.340636,0.414854 -0.340636,1.067356 l 0,1.067357 2.726695,0.506675 c 1.499682,0.278671 2.852543,0.580595 3.006356,0.670941 0.153814,0.09035 -1.041737,0.423733 -2.65678,0.74086 l -2.93644,0.576594 -0.08386,1.137175 -0.08386,1.137174 2.950385,0.524169 c 1.622712,0.288292 2.950386,0.598556 2.950386,0.689476 0,0.09092 -1.289937,0.410426 -2.866526,0.710017 l -2.866525,0.544709 -0.0868,1.0468 c -0.0683,0.823694 0.01213,1.046799 0.377375,1.046799 0.255295,0 2.528146,-0.394929 5.05078,-0.877619 z"
     id="path3772"
     inkscape:connector-curvature="0" />
  <path
     style="fill:#000080;fill-opacity:0;stroke:#ffffff;stroke-width:0;stroke-miterlimit:4;stroke-opacity:1;stroke-dasharray:none"
     d="M 3.4740186,40.560275 C 3.3722864,31.926149 3.2889285,20.299894 3.2887788,14.724153 l -2.72e-4,-10.1377123 12.5847462,0 12.584745,0 0,25.8651703 0,25.865171 -1.608051,-1.021783 C 25.96552,54.73302 23.252383,52.972719 20.820754,51.383221 18.389126,49.79372 16.246608,48.49322 16.059603,48.49322 c -0.187005,0 -2.350457,1.297762 -4.807671,2.883915 -2.4572144,1.586153 -5.1708511,3.333383 -6.0303041,3.882733 L 3.6589862,56.258685 3.4740186,40.560275 z m 18.2721154,0.661759 0,-1.118644 -3.006356,-0.0089 -3.006356,-0.0089 3.006356,-1.309522 3.006356,-1.309523 0,-1.344748 0,-1.34475 -4.963983,0.07637 -4.963983,0.07637 -0.08624,1.039416 -0.08624,1.039419 3.106535,0.07923 3.106535,0.0792 -3.020293,1.299495 -3.020293,1.299498 -0.08524,1.287367 -0.08524,1.287369 5.049222,0 5.049221,0 0,-1.118644 z m 0,-11.04661 0,-2.936441 -1.118644,0 -1.118644,0 0,1.817797 0,1.817796 -0.978814,0 -0.978813,0 0,-1.677966 0,-1.677966 -1.118644,0 -1.118644,0 0,1.677966 c 0,1.60339 -0.03107,1.677966 -0.699153,1.677966 -0.674055,0 -0.699153,-0.06525 -0.699153,-1.817796 l 0,-1.817797 -1.118644,0 -1.118644,0 0,2.936441 0,2.93644 5.033899,0 5.033898,0 0,-2.93644 z m -4.586608,-4.932704 4.586608,-0.87762 0,-1.330024 0,-1.330023 -3.425848,-0.640534 -3.425847,-0.640534 3.425847,-0.684759 3.425848,-0.684759 0,-1.308973 0,-1.308974 -4.693263,-0.891141 c -2.581295,-0.490128 -4.846549,-0.891142 -5.033898,-0.891142 -0.208239,0 -0.340636,0.414854 -0.340636,1.067356 l 0,1.067357 2.726695,0.506675 c 1.499682,0.278671 2.852543,0.580595 3.006356,0.670941 0.153814,0.09035 -1.041737,0.423733 -2.65678,0.74086 l -2.93644,0.576594 -0.08386,1.137175 -0.08386,1.137174 2.950385,0.524169 c 1.622712,0.288292 2.950386,0.598556 2.950386,0.689476 0,0.09092 -1.289937,0.410426 -2.866526,0.710017 l -2.866525,0.544709 -0.0868,1.0468 c -0.0683,0.823694 0.01213,1.046799 0.377375,1.046799 0.255295,0 2.528146,-0.394929 5.05078,-0.877619 z"
     id="path3774"
     inkscape:connector-curvature="0" />
  <path
     style="fill:#000080;fill-opacity:0;stroke:#ffffff;stroke-width:0;stroke-miterlimit:4;stroke-opacity:1;stroke-dasharray:none"
     d="m 0.21223561,31.85339 0,-31.46186458 15.66101739,0 15.661017,0 0,31.45044558 0,31.450449 -7.605662,-4.911748 -7.605662,-4.911745 -1.171958,0.569381 c -1.18023,0.5734 -8.8780286,5.405867 -12.6189195,7.921812 -1.108202,0.745325 -2.08351975,1.355134 -2.16737281,1.355134 -0.0838531,0 -0.15246008,-14.157839 -0.15246008,-31.461864 z M 8.7066358,54.966514 c 3.4032922,-2.130787 6.4778132,-4.026595 6.8322712,-4.212906 0.586432,-0.308236 1.077514,-0.06375 5.453389,2.714955 8.127705,5.161144 8.604641,5.445037 8.807295,5.242442 0.108097,-0.10807 0.22982,-12.582 0.270491,-27.719849 l 0.07395,-27.5233594 -14.266743,0 -14.2667433,0 2.405e-4,9.8580504 c 4.743e-4,19.444302 0.3668453,45.514831 0.6396231,45.514831 0.1476357,0 3.0529399,-1.743373 6.4562315,-3.874164 z"
     id="path3778"
     inkscape:connector-curvature="0" />
  <path
     style="fill:#000080;fill-opacity:0;stroke:#ffffff;stroke-width:0;stroke-miterlimit:4;stroke-opacity:1;stroke-dasharray:none"
     d="m 0.21223561,31.85339 0,-31.46186458 15.66101739,0 15.661017,0 0,31.45044558 0,31.450449 -7.605662,-4.911748 -7.605662,-4.911745 -1.171958,0.569381 c -1.18023,0.5734 -8.8780286,5.405867 -12.6189195,7.921812 -1.108202,0.745325 -2.08351975,1.355134 -2.16737281,1.355134 -0.0838531,0 -0.15246008,-14.157839 -0.15246008,-31.461864 z M 8.7066358,54.966514 c 3.4032922,-2.130787 6.4778132,-4.026595 6.8322712,-4.212906 0.586432,-0.308236 1.077514,-0.06375 5.453389,2.714955 8.127705,5.161144 8.604641,5.445037 8.807295,5.242442 0.108097,-0.10807 0.22982,-12.582 0.270491,-27.719849 l 0.07395,-27.5233594 -14.266743,0 -14.2667433,0 2.405e-4,9.8580504 c 4.743e-4,19.444302 0.3668453,45.514831 0.6396231,45.514831 0.1476357,0 3.0529399,-1.743373 6.4562315,-3.874164 z"
     id="path3780"
     inkscape:connector-curvature="0" />
  <path
     style="fill:#000080;fill-opacity:0;stroke:#ffffff;stroke-width:0;stroke-miterlimit:4;stroke-opacity:1;stroke-dasharray:none"
     d="m 0.21223561,31.85339 0,-31.46186458 15.66101739,0 15.661017,0 0,31.45044558 0,31.450449 -7.605662,-4.911748 -7.605662,-4.911745 -1.171958,0.569381 c -1.18023,0.5734 -8.8780286,5.405867 -12.6189195,7.921812 -1.108202,0.745325 -2.08351975,1.355134 -2.16737281,1.355134 -0.0838531,0 -0.15246008,-14.157839 -0.15246008,-31.461864 z M 8.7066358,54.966514 c 3.4032922,-2.130787 6.4778132,-4.026595 6.8322712,-4.212906 0.586432,-0.308236 1.077514,-0.06375 5.453389,2.714955 8.127705,5.161144 8.604641,5.445037 8.807295,5.242442 0.108097,-0.10807 0.22982,-12.582 0.270491,-27.719849 l 0.07395,-27.5233594 -14.266743,0 -14.2667433,0 2.405e-4,9.8580504 c 4.743e-4,19.444302 0.3668453,45.514831 0.6396231,45.514831 0.1476357,0 3.0529399,-1.743373 6.4562315,-3.874164 z"
     id="path3782"
     inkscape:connector-curvature="0" />
  <path
     style="fill:#000080;fill-opacity:0;stroke:#ffffff;stroke-width:0;stroke-miterlimit:4;stroke-opacity:1;stroke-dasharray:none"
     d="m 0.21223561,31.85339 0,-31.46186458 15.66101739,0 15.661017,0 0,31.45044558 0,31.450449 -7.605662,-4.911748 -7.605662,-4.911745 -1.171958,0.569381 c -1.18023,0.5734 -8.8780286,5.405867 -12.6189195,7.921812 -1.108202,0.745325 -2.08351975,1.355134 -2.16737281,1.355134 -0.0838531,0 -0.15246008,-14.157839 -0.15246008,-31.461864 z M 8.7066358,54.966514 c 3.4032922,-2.130787 6.4778132,-4.026595 6.8322712,-4.212906 0.586432,-0.308236 1.077514,-0.06375 5.453389,2.714955 8.127705,5.161144 8.604641,5.445037 8.807295,5.242442 0.108097,-0.10807 0.22982,-12.582 0.270491,-27.719849 l 0.07395,-27.5233594 -14.266743,0 -14.2667433,0 2.405e-4,9.8580504 c 4.743e-4,19.444302 0.3668453,45.514831 0.6396231,45.514831 0.1476357,0 3.0529399,-1.743373 6.4562315,-3.874164 z"
     id="path3784"
     inkscape:connector-curvature="0" />
  <path
     style="fill:#000080;fill-opacity:0;stroke:#ffffff;stroke-width:0;stroke-miterlimit:4;stroke-opacity:1;stroke-dasharray:none"
     d="m 0.21223561,31.85339 0,-31.46186458 15.66101739,0 15.661017,0 0,31.45044558 0,31.450449 -7.605662,-4.911748 -7.605662,-4.911745 -1.171958,0.569381 c -1.18023,0.5734 -8.8780286,5.405867 -12.6189195,7.921812 -1.108202,0.745325 -2.08351975,1.355134 -2.16737281,1.355134 -0.0838531,0 -0.15246008,-14.157839 -0.15246008,-31.461864 z M 8.7066358,54.966514 c 3.4032922,-2.130787 6.4778132,-4.026595 6.8322712,-4.212906 0.586432,-0.308236 1.077514,-0.06375 5.453389,2.714955 8.127705,5.161144 8.604641,5.445037 8.807295,5.242442 0.108097,-0.10807 0.22982,-12.582 0.270491,-27.719849 l 0.07395,-27.5233594 -14.266743,0 -14.2667433,0 2.405e-4,9.8580504 c 4.743e-4,19.444302 0.3668453,45.514831 0.6396231,45.514831 0.1476357,0 3.0529399,-1.743373 6.4562315,-3.874164 z"
     id="path3786"
     inkscape:connector-curvature="0" />
  <path
     style="fill:#000080;fill-opacity:0;stroke:#ffffff;stroke-width:0;stroke-miterlimit:4;stroke-opacity:1;stroke-dasharray:none"
     d="m 0.21223561,31.85339 0,-31.46186458 15.66101739,0 15.661017,0 0,31.45044558 0,31.450449 -7.605662,-4.911748 -7.605662,-4.911745 -1.171958,0.569381 c -1.18023,0.5734 -8.8780286,5.405867 -12.6189195,7.921812 -1.108202,0.745325 -2.08351975,1.355134 -2.16737281,1.355134 -0.0838531,0 -0.15246008,-14.157839 -0.15246008,-31.461864 z M 8.7066358,54.966514 c 3.4032922,-2.130787 6.4778132,-4.026595 6.8322712,-4.212906 0.586432,-0.308236 1.077514,-0.06375 5.453389,2.714955 8.127705,5.161144 8.604641,5.445037 8.807295,5.242442 0.108097,-0.10807 0.22982,-12.582 0.270491,-27.719849 l 0.07395,-27.5233594 -14.266743,0 -14.2667433,0 2.405e-4,9.8580504 c 4.743e-4,19.444302 0.3668453,45.514831 0.6396231,45.514831 0.1476357,0 3.0529399,-1.743373 6.4562315,-3.874164 z"
     id="path3788"
     inkscape:connector-curvature="0" />
  <path
     style="fill:#000080;fill-opacity:0;stroke:#ffffff;stroke-width:0;stroke-miterlimit:4;stroke-opacity:1;stroke-dasharray:none"
     d="m 0.21223561,31.85339 0,-31.46186458 15.66101739,0 15.661017,0 0,31.45044558 0,31.450449 -7.605662,-4.911748 -7.605662,-4.911745 -1.171958,0.569381 c -1.18023,0.5734 -8.8780286,5.405867 -12.6189195,7.921812 -1.108202,0.745325 -2.08351975,1.355134 -2.16737281,1.355134 -0.0838531,0 -0.15246008,-14.157839 -0.15246008,-31.461864 z M 8.7066358,54.966514 c 3.4032922,-2.130787 6.4778132,-4.026595 6.8322712,-4.212906 0.586432,-0.308236 1.077514,-0.06375 5.453389,2.714955 8.127705,5.161144 8.604641,5.445037 8.807295,5.242442 0.108097,-0.10807 0.22982,-12.582 0.270491,-27.719849 l 0.07395,-27.5233594 -14.266743,0 -14.2667433,0 2.405e-4,9.8580504 c 4.743e-4,19.444302 0.3668453,45.514831 0.6396231,45.514831 0.1476357,0 3.0529399,-1.743373 6.4562315,-3.874164 z"
     id="path3792"
     inkscape:connector-curvature="0" />
  <path
     style="fill:#808000;fill-opacity:0;stroke:#ffffff;stroke-width:0;stroke-miterlimit:4;stroke-opacity:1;stroke-dasharray:none"
     d="m 0.21223553,31.85339 0,-31.4618648 15.66101647,0 15.661017,0 0,31.4504458 0,31.450449 -7.605661,-4.911748 -7.605662,-4.911745 -1.171958,0.569381 c -1.18023,0.5734 -8.8780287,5.405867 -12.6189196,7.921812 -1.1082019,0.745325 -2.08351973,1.355134 -2.16737279,1.355134 -0.083853,0 -0.15246008,-14.157839 -0.15246008,-31.461864 z M 8.7066358,54.966514 c 3.4032912,-2.130788 6.4778132,-4.026596 6.8322712,-4.212906 0.586432,-0.308237 1.077514,-0.06375 5.453389,2.714955 8.127705,5.161144 8.604641,5.445036 8.807295,5.242442 0.108097,-0.10807 0.22982,-12.582 0.270491,-27.719849 l 0.07395,-27.5233596 -14.266743,0 -14.2667434,0 2.405e-4,9.8580506 c 4.743e-4,19.444302 0.3668453,45.514831 0.6396232,45.514831 0.1476357,0 3.0529398,-1.743373 6.4562315,-3.874164 z"
     id="path3004"
     inkscape:connector-curvature="0" />
  <path
     style="fill:#808000;fill-opacity:0;stroke:#ffffff;stroke-width:0;stroke-miterlimit:4;stroke-opacity:1;stroke-dasharray:none"
     d=""
     id="path3006"
     inkscape:connector-curvature="0" />
  <path
     style="fill:#000080;fill-opacity:0;stroke:#ffffff;stroke-width:0;stroke-miterlimit:4;stroke-opacity:1;stroke-dasharray:none"
     d="m 0.21223553,31.85339 0,-31.4618648 15.66101647,0 15.661017,0 0,31.4504458 0,31.450449 -7.605661,-4.911748 -7.605662,-4.911745 -1.171958,0.569381 c -1.18023,0.5734 -8.8780287,5.405867 -12.6189196,7.921812 -1.1082019,0.745325 -2.08351973,1.355134 -2.16737279,1.355134 -0.083853,0 -0.15246008,-14.157839 -0.15246008,-31.461864 z M 8.7066358,54.966514 c 3.4032912,-2.130788 6.4778132,-4.026596 6.8322712,-4.212906 0.586432,-0.308237 1.077514,-0.06375 5.453389,2.714955 8.127705,5.161144 8.604641,5.445036 8.807295,5.242442 0.108097,-0.10807 0.22982,-12.582 0.270491,-27.719849 l 0.07395,-27.5233596 -14.266743,0 -14.2667434,0 2.405e-4,9.8580506 c 4.743e-4,19.444302 0.3668453,45.514831 0.6396232,45.514831 0.1476357,0 3.0529398,-1.743373 6.4562315,-3.874164 z"
     id="path3008"
     inkscape:connector-curvature="0" />
  <path
     style="fill:#000080;fill-opacity:0;stroke:#ffffff;stroke-width:0;stroke-miterlimit:4;stroke-opacity:1;stroke-dasharray:none"
     d="m 0.21223553,31.85339 0,-31.4618648 15.66101647,0 15.661017,0 0,31.4504458 0,31.450449 -7.605661,-4.911748 -7.605662,-4.911745 -1.171958,0.569381 c -1.18023,0.5734 -8.8780287,5.405867 -12.6189196,7.921812 -1.1082019,0.745325 -2.08351973,1.355134 -2.16737279,1.355134 -0.083853,0 -0.15246008,-14.157839 -0.15246008,-31.461864 z M 8.7066358,54.966514 c 3.4032912,-2.130788 6.4778132,-4.026596 6.8322712,-4.212906 0.586432,-0.308237 1.077514,-0.06375 5.453389,2.714955 8.127705,5.161144 8.604641,5.445036 8.807295,5.242442 0.108097,-0.10807 0.22982,-12.582 0.270491,-27.719849 l 0.07395,-27.5233596 -14.266743,0 -14.2667434,0 2.405e-4,9.8580506 c 4.743e-4,19.444302 0.3668453,45.514831 0.6396232,45.514831 0.1476357,0 3.0529398,-1.743373 6.4562315,-3.874164 z"
     id="path3010"
     inkscape:connector-curvature="0" />
  <path
     style="fill:#000080;fill-opacity:1;stroke:#ffffff;stroke-width:0;stroke-miterlimit:4;stroke-opacity:1;stroke-dasharray:none"
     d="m 0.21223553,31.85339 0,-31.4618648 15.66101647,0 15.661017,0 0,31.4504458 0,31.450449 -7.605661,-4.911748 -7.605662,-4.911745 -1.171958,0.569381 c -1.18023,0.5734 -8.8780287,5.405867 -12.6189196,7.921812 -1.1082019,0.745325 -2.08351973,1.355134 -2.16737279,1.355134 -0.083853,0 -0.15246008,-14.157839 -0.15246008,-31.461864 z M 8.7066358,54.966514 c 3.4032912,-2.130788 6.4778132,-4.026596 6.8322712,-4.212906 0.586432,-0.308237 1.077514,-0.06375 5.453389,2.714955 8.127705,5.161144 8.604641,5.445036 8.807295,5.242442 0.108097,-0.10807 0.22982,-12.582 0.270491,-27.719849 l 0.07395,-27.5233596 -14.266743,0 -14.2667434,0 2.405e-4,9.8580506 c 4.743e-4,19.444302 0.3668453,45.514831 0.6396232,45.514831 0.1476357,0 3.0529398,-1.743373 6.4562315,-3.874164 z"
     id="path3012"
     inkscape:connector-curvature="0" />
  <path
     style="fill:#000080;fill-opacity:0;stroke:#ffffff;stroke-width:0;stroke-miterlimit:4;stroke-opacity:1;stroke-dasharray:none"
     d="m 31.669369,31.85339 c 1.1e-5,-17.380933 0.03358,-24.450166 0.07461,-15.709408 0.04103,8.740758 0.04102,22.961521 -2e-5,31.601696 -0.04104,8.640172 -0.0746,1.488644 -0.07459,-15.892288 z"
     id="path3016"
     inkscape:connector-curvature="0" />
</svg>
