<?xml version="1.0" encoding="UTF-8" standalone="no"?>
<svg xmlns:dc="http://purl.org/dc/elements/1.1/" xmlns:cc="http://creativecommons.org/ns#" xmlns:rdf="http://www.w3.org/1999/02/22-rdf-syntax-ns#" xmlns:svg="http://www.w3.org/2000/svg" xmlns="http://www.w3.org/2000/svg" xmlns:sodipodi="http://sodipodi.sourceforge.net/DTD/sodipodi-0.dtd" xmlns:inkscape="http://www.inkscape.org/namespaces/inkscape" version="1.1" id="Layer_1" x="0" y="0" width="92" height="62" viewBox="0" enable-background="new 0 0 425 300" xml:space="preserve" inkscape:version="0.91 r13725" sodipodi:docname="tmdb.svg"><metadata id="metadata57"><rdf:RDF><cc:Work rdf:about=""><dc:format>image/svg+xml</dc:format><dc:type rdf:resource="http://purl.org/dc/dcmitype/StillImage" /><dc:title></dc:title></cc:Work></rdf:RDF></metadata><defs id="defs55" /><sodipodi:namedview pagecolor="#ffffff" bordercolor="#666666" borderopacity="1" objecttolerance="10" gridtolerance="10" guidetolerance="10" inkscape:pageopacity="0" inkscape:pageshadow="2" inkscape:window-width="1440" inkscape:window-height="824" id="namedview53" showgrid="false" fit-margin-top="0" fit-margin-left="0" fit-margin-right="0" fit-margin-bottom="0" inkscape:zoom="0.9864" inkscape:cx="144" inkscape:cy="98.49" inkscape:window-x="0" inkscape:window-y="24" inkscape:window-maximized="1" inkscape:current-layer="Layer_1" /><linearGradient id="GRAYGRAD" gradientUnits="userSpaceOnUse" x1="94.06" y1="-3.26" x2="201.5" y2="220.7" gradientTransform="matrix(0.9996,0,0,0.9996,-0.1095,-0.0097)"><stop offset="0" stop-color="#9C9C9C" id="stop4" /><stop offset="0.17" stop-color="#848484" id="stop6" /><stop offset="0.4" stop-color="#6B6B6B" id="stop8" /><stop offset="0.54" stop-color="#616161" id="stop10" /><stop offset="0.67" stop-color="#6A6A6A" id="stop12" /><stop offset="0.88" stop-color="#828282" id="stop14" /><stop offset="1" stop-color="#929292" id="stop16" /></linearGradient><linearGradient id="GREENGRAD" gradientUnits="userSpaceOnUse" x1="29.84" y1="226.6" x2="29.84" y2="266.9"><stop offset="0" stop-color="#54660E" id="stop21" /><stop offset="1" stop-color="#7B9711" id="stop23" /></linearGradient><g id="g4245" transform="matrix(1.875,0,0,1.875,1.46,1)" style="fill:#cacfd4;fill-opacity:1"><path id="path18" d="m 31.75,10.27 0,0 C 31.75,5.053 29.98,0 15.87,0 1.77,0 -2.9e-4,5.053 -2.9e-4,10.27 l 0,0 c 0,5.23 1.77029,10.28 15.87029,10.28 3.47,0 6.19,-0.3 8.33,-0.85 0.98,0.74 4.73,3.05 5.38,2.6 0.68,-0.44 0.15,-3.99 -0.11,-5.27 1.88,-1.87 2.28,-4.3 2.28,-6.76 z m -25.454,0 c 0,-2.83 1.069,-5.574 9.574,-5.574 8.51,0 9.58,2.744 9.58,5.574 0,2.85 -1.07,5.58 -9.58,5.58 -8.505,0 -9.574,-2.74 -9.574,-5.58 z" style="fill:#cacfd4;fill-opacity:1" inkscape:connector-curvature="0" /><path id="path25" d="m 1.865,25.35 0,1.26 0.867,0 0,0.92 -0.867,0 0,1.4 c 0,0.38 0.181,0.48 0.417,0.48 0.132,0 0.256,-0.1 0.375,-0.11 l 0.25,0.72 c -0.215,0.14 -0.596,0.25 -0.984,0.25 -1.1785,0 -1.2273,-0.68 -1.2273,-1.38 l 0,-3.54 1.1693,0 z" style="fill:#cacfd4;fill-opacity:1" inkscape:connector-curvature="0" /><path id="path27" d="m 3.321,30.16 0,-4.81 1.157,0 0,1.46 c 0.202,-0.18 0.472,-0.3 0.79,-0.3 0.728,0 1.124,0.41 1.124,1.25 l 0,2.4 -1.158,0 0,-2.24 c 0,-0.32 -0.06,-0.52 -0.319,-0.52 -0.284,0 -0.435,0.21 -0.435,0.49 l 0,2.27 -1.159,0 z" style="fill:#cacfd4;fill-opacity:1" inkscape:connector-curvature="0" /><path id="path29" d="m 9.961,27.59 c 0,1.01 -1.137,1.21 -1.816,1.25 0.03,0.31 0.264,0.57 0.686,0.57 0.334,0 0.638,-0.15 0.86,-0.3 l 0.305,0.77 c -0.03,0 -0.554,0.39 -1.331,0.39 -1.22,0 -1.698,-0.73 -1.698,-1.78 0,-1.01 0.596,-1.98 1.781,-1.98 0.728,0 1.213,0.36 1.213,1.08 z M 8.685,27.32 c -0.347,0 -0.575,0.34 -0.596,0.82 0.373,0 0.866,-0.2 0.866,-0.53 0,-0.18 -0.104,-0.29 -0.27,-0.29 z" style="fill:#cacfd4;fill-opacity:1" inkscape:connector-curvature="0" /><path id="path31" d="m 10.5,30.16 0,-2.83 -0.1,-0.72 0.96,0 0.1,0.38 c 0.21,-0.29 0.5,-0.48 0.96,-0.48 0.4,0 0.73,0.14 0.91,0.45 0.21,-0.28 0.5,-0.45 0.95,-0.45 0.67,0 1.09,0.38 1.09,1.22 l 0,2.43 -1.15,0 0,-2.22 c 0,-0.32 -0.1,-0.54 -0.33,-0.54 -0.27,0 -0.38,0.21 -0.38,0.5 l 0,2.26 -1.16,0 0,-2.22 c 0,-0.3 0,-0.54 -0.3,-0.54 -0.28,0 -0.38,0.21 -0.38,0.52 l 0,2.24 -1.16,0 z" style="fill:#cacfd4;fill-opacity:1" inkscape:connector-curvature="0" /><path id="path33" d="m 17.63,26.51 c 0.55,0 1.62,0.17 1.62,1.8 0,1.3 -0.76,1.96 -1.72,1.96 -0.99,0 -1.6,-0.59 -1.6,-1.85 0,-1.46 0.94,-1.91 1.7,-1.91 z m 0.43,1.9 c 0,-0.7 -0.12,-1.07 -0.48,-1.07 -0.32,0 -0.46,0.37 -0.46,0.94 0,0.6 0.1,1.15 0.46,1.15 0.34,0 0.48,-0.34 0.48,-1.02 z" style="fill:#cacfd4;fill-opacity:1" inkscape:connector-curvature="0" /><path id="path35" d="m 22.66,26.61 c 0.14,0.46 0.23,1.1 0.23,1.6 0,1.34 -0.61,2.05 -1.75,2.05 -0.91,0 -1.34,-0.41 -1.34,-1.27 l 0,-2.37 1.18,0 0,2.24 c 0,0.33 0,0.5 0.29,0.5 0.39,0 0.49,-0.54 0.49,-1.11 0,-0.53 -0.12,-1.15 -0.23,-1.63 l 1.13,0 z" style="fill:#cacfd4;fill-opacity:1" inkscape:connector-curvature="0" /><path id="path37" d="m 24.14,25.02 c 0.37,0 0.61,0.26 0.61,0.59 0,0.33 -0.24,0.57 -0.61,0.57 -0.39,0 -0.62,-0.24 -0.62,-0.57 0,-0.33 0.23,-0.59 0.62,-0.59 z m -0.59,5.14 0,-3.55 1.16,0 0,3.55 -1.16,0 z" style="fill:#cacfd4;fill-opacity:1" inkscape:connector-curvature="0" /><path id="path39" d="m 28.29,27.59 c 0,1.01 -1.14,1.21 -1.82,1.25 0,0.31 0.26,0.57 0.68,0.57 0.33,0 0.64,-0.15 0.86,-0.3 l 0.3,0.77 c 0,0 -0.54,0.39 -1.33,0.39 -1.2,0 -1.69,-0.73 -1.69,-1.78 0,-1.01 0.59,-1.98 1.78,-1.98 0.73,0 1.22,0.36 1.22,1.08 z m -1.28,-0.27 c -0.34,0 -0.58,0.34 -0.6,0.82 0.38,0 0.87,-0.2 0.87,-0.53 0,-0.18 -0.1,-0.29 -0.27,-0.29 z" style="fill:#cacfd4;fill-opacity:1" inkscape:connector-curvature="0" /><path id="path41" d="m 30.71,26.55 0,-1.2 1.15,0 0,4.06 0.1,0.75 -0.97,0 -0.1,-0.33 0,0 c -0.18,0.28 -0.46,0.43 -0.85,0.43 -1.17,0 -1.37,-0.9 -1.37,-1.7 0,-1.19 0.65,-2.05 1.75,-2.05 0.14,0 0.24,0 0.33,0 z m 0,0.83 c -0.1,0 -0.17,-0.1 -0.27,-0.1 -0.55,0 -0.66,0.62 -0.66,1.15 0,0.52 0.11,0.96 0.49,0.96 0.27,0 0.44,-0.19 0.44,-0.38 l 0,-1.68 z" style="fill:#cacfd4;fill-opacity:1" inkscape:connector-curvature="0" /><path id="path43" d="m 32.64,25.35 1.16,0 0,1.33 c 0.16,-0.1 0.4,-0.17 0.67,-0.17 0.85,0 1.39,0.58 1.39,1.72 0,1.36 -0.63,2.04 -1.77,2.04 -0.53,0 -1.15,-0.13 -1.45,-0.29 l 0,-4.63 z m 1.16,4.06 c 0.11,0 0.23,0.1 0.35,0.1 0.45,0 0.55,-0.42 0.55,-1.08 0,-0.56 -0.1,-1.06 -0.55,-1.06 -0.18,0 -0.34,0.14 -0.34,0.33 l 0,1.75 z" style="fill:#cacfd4;fill-opacity:1" inkscape:connector-curvature="0" /><path id="path45" d="m 36.87,29.17 c 0.39,0 0.59,0.22 0.59,0.55 0,0.31 -0.2,0.55 -0.56,0.55 -0.39,0 -0.59,-0.23 -0.59,-0.55 0,-0.3 0.21,-0.55 0.56,-0.55 z" style="fill:#cacfd4;fill-opacity:1" inkscape:connector-curvature="0" /><path id="path47" d="m 39.63,26.51 c 0.57,0 1.63,0.17 1.63,1.8 0,1.3 -0.76,1.96 -1.72,1.96 -0.99,0 -1.6,-0.59 -1.6,-1.85 0,-1.46 0.94,-1.91 1.69,-1.91 z m 0.43,1.9 c 0,-0.7 -0.12,-1.07 -0.48,-1.07 -0.31,0 -0.46,0.37 -0.46,0.94 0,0.6 0.1,1.15 0.46,1.15 0.35,0 0.48,-0.34 0.48,-1.02 z" style="fill:#cacfd4;fill-opacity:1" inkscape:connector-curvature="0" /><path id="path49" d="m 43,30.16 -1.16,0 0,-2.87 -0.1,-0.68 0.95,0 0.1,0.5 c 0.19,-0.44 0.54,-0.6 0.83,-0.6 0.17,0 0.41,0 0.58,0.14 L 44,27.61 c -0.14,-0.1 -0.31,-0.12 -0.5,-0.12 -0.29,0 -0.5,0.18 -0.5,0.5 l 0,2.17 z" style="fill:#cacfd4;fill-opacity:1" inkscape:connector-curvature="0" /><path id="path51" d="m 44.6,31.01 c 0,-0.52 0.27,-0.88 0.74,-1.21 -0.57,-0.1 -1.07,-0.63 -1.07,-1.47 0,-1.19 0.75,-1.82 1.82,-1.82 0.42,0 0.99,0.1 1.42,0.28 l 0,2.69 c 0,0.18 0,0.62 0,0.82 -0.1,1.06 -0.58,1.7 -1.63,1.7 -0.83,0 -1.25,-0.38 -1.25,-0.99 z m 1.76,-3.64 c -0.1,0 -0.17,0 -0.28,0 -0.48,0 -0.65,0.48 -0.65,0.98 0,0.43 0,0.9 0.5,0.9 0.22,0 0.43,-0.16 0.43,-0.47 l 0,-1.38 z m -0.39,3.79 c 0.35,0 0.4,-0.35 0.4,-0.98 l 0,-0.36 c -0.41,0.25 -0.72,0.62 -0.72,1 0,0.25 0.11,0.34 0.32,0.34 z" style="fill:#cacfd4;fill-opacity:1" inkscape:connector-curvature="0" /></g></svg>